<mxfile host="Electron" agent="Mozilla/5.0 (X11; Linux x86_64) AppleWebKit/537.36 (KHTML, like Gecko) draw.io/26.1.1 Chrome/132.0.6834.210 Electron/34.3.3 Safari/537.36" version="26.1.1">
  <diagram name="Page-1" id="vT3iJtzjQtRPzJRklqwh">
    <mxGraphModel dx="931" dy="643" grid="1" gridSize="10" guides="1" tooltips="1" connect="1" arrows="1" fold="1" page="1" pageScale="1" pageWidth="1575" pageHeight="1654" math="0" shadow="0">
      <root>
        <mxCell id="0" />
        <mxCell id="1" parent="0" />
        <mxCell id="IT8jkF3c_iKPxxVVUz1t-1" value="INSTRUCTION DECODE" style="rounded=0;whiteSpace=wrap;html=1;" parent="1" vertex="1">
          <mxGeometry x="1040" y="330" width="120" height="360" as="geometry" />
        </mxCell>
        <mxCell id="IT8jkF3c_iKPxxVVUz1t-2" value="CLOCK GENERATOR" style="rounded=0;whiteSpace=wrap;html=1;" parent="1" vertex="1">
          <mxGeometry x="1245" y="644" width="120" height="40" as="geometry" />
        </mxCell>
        <mxCell id="IT8jkF3c_iKPxxVVUz1t-9" value="" style="endArrow=classic;html=1;rounded=0;exitX=0;exitY=0.891;exitDx=0;exitDy=0;exitPerimeter=0;" parent="1" edge="1">
          <mxGeometry width="50" height="50" relative="1" as="geometry">
            <mxPoint x="1245" y="663.76" as="sourcePoint" />
            <mxPoint x="1160" y="664.12" as="targetPoint" />
          </mxGeometry>
        </mxCell>
        <mxCell id="IT8jkF3c_iKPxxVVUz1t-10" value="" style="endArrow=classic;html=1;rounded=0;" parent="1" target="IT8jkF3c_iKPxxVVUz1t-2" edge="1">
          <mxGeometry width="50" height="50" relative="1" as="geometry">
            <mxPoint x="1365" y="664" as="sourcePoint" />
            <mxPoint x="1415" y="614" as="targetPoint" />
            <Array as="points">
              <mxPoint x="1445" y="664" />
            </Array>
          </mxGeometry>
        </mxCell>
        <mxCell id="IT8jkF3c_iKPxxVVUz1t-11" value="CLOCK INPUT" style="text;html=1;align=center;verticalAlign=middle;resizable=0;points=[];autosize=1;strokeColor=none;fillColor=none;" parent="1" vertex="1">
          <mxGeometry x="1365" y="640" width="100" height="30" as="geometry" />
        </mxCell>
        <mxCell id="IT8jkF3c_iKPxxVVUz1t-12" value="" style="endArrow=classic;html=1;rounded=0;" parent="1" edge="1">
          <mxGeometry width="50" height="50" relative="1" as="geometry">
            <mxPoint x="1440" y="370" as="sourcePoint" />
            <mxPoint x="1160" y="370" as="targetPoint" />
          </mxGeometry>
        </mxCell>
        <mxCell id="IT8jkF3c_iKPxxVVUz1t-13" value="RDY" style="text;html=1;align=center;verticalAlign=middle;resizable=0;points=[];autosize=1;strokeColor=none;fillColor=none;" parent="1" vertex="1">
          <mxGeometry x="1160" y="345" width="50" height="30" as="geometry" />
        </mxCell>
        <mxCell id="IT8jkF3c_iKPxxVVUz1t-14" value="CLK" style="text;html=1;align=center;verticalAlign=middle;resizable=0;points=[];autosize=1;strokeColor=none;fillColor=none;" parent="1" vertex="1">
          <mxGeometry x="1160" y="640" width="50" height="30" as="geometry" />
        </mxCell>
        <mxCell id="IT8jkF3c_iKPxxVVUz1t-17" value="" style="endArrow=classic;html=1;rounded=0;entryX=0.333;entryY=0;entryDx=0;entryDy=0;entryPerimeter=0;" parent="1" edge="1">
          <mxGeometry width="50" height="50" relative="1" as="geometry">
            <mxPoint x="1070" y="290" as="sourcePoint" />
            <mxPoint x="1070" y="330" as="targetPoint" />
          </mxGeometry>
        </mxCell>
        <mxCell id="IT8jkF3c_iKPxxVVUz1t-18" value="" style="endArrow=classic;html=1;rounded=0;entryX=0.333;entryY=0;entryDx=0;entryDy=0;entryPerimeter=0;" parent="1" edge="1">
          <mxGeometry width="50" height="50" relative="1" as="geometry">
            <mxPoint x="1100" y="290" as="sourcePoint" />
            <mxPoint x="1099.8400000000001" y="330" as="targetPoint" />
          </mxGeometry>
        </mxCell>
        <mxCell id="IT8jkF3c_iKPxxVVUz1t-19" value="" style="endArrow=classic;html=1;rounded=0;entryX=0.333;entryY=0;entryDx=0;entryDy=0;entryPerimeter=0;" parent="1" edge="1">
          <mxGeometry width="50" height="50" relative="1" as="geometry">
            <mxPoint x="1130" y="290" as="sourcePoint" />
            <mxPoint x="1130" y="330" as="targetPoint" />
          </mxGeometry>
        </mxCell>
        <mxCell id="IT8jkF3c_iKPxxVVUz1t-21" value="INTERRUPT&lt;br&gt;LOGIC" style="rounded=0;whiteSpace=wrap;html=1;" parent="1" vertex="1">
          <mxGeometry x="1040" y="230" width="120" height="60" as="geometry" />
        </mxCell>
        <mxCell id="IT8jkF3c_iKPxxVVUz1t-22" value="" style="endArrow=classic;html=1;rounded=0;entryX=0.25;entryY=0;entryDx=0;entryDy=0;" parent="1" target="IT8jkF3c_iKPxxVVUz1t-21" edge="1">
          <mxGeometry width="50" height="50" relative="1" as="geometry">
            <mxPoint x="1070" y="190" as="sourcePoint" />
            <mxPoint x="1130" y="170" as="targetPoint" />
          </mxGeometry>
        </mxCell>
        <mxCell id="IT8jkF3c_iKPxxVVUz1t-23" value="" style="endArrow=classic;html=1;rounded=0;entryX=0.25;entryY=0;entryDx=0;entryDy=0;" parent="1" edge="1">
          <mxGeometry width="50" height="50" relative="1" as="geometry">
            <mxPoint x="1099.84" y="190" as="sourcePoint" />
            <mxPoint x="1099.84" y="230" as="targetPoint" />
          </mxGeometry>
        </mxCell>
        <mxCell id="IT8jkF3c_iKPxxVVUz1t-24" value="" style="endArrow=classic;html=1;rounded=0;entryX=0.25;entryY=0;entryDx=0;entryDy=0;" parent="1" edge="1">
          <mxGeometry width="50" height="50" relative="1" as="geometry">
            <mxPoint x="1130" y="190" as="sourcePoint" />
            <mxPoint x="1130" y="230" as="targetPoint" />
          </mxGeometry>
        </mxCell>
        <mxCell id="IT8jkF3c_iKPxxVVUz1t-26" value="RES" style="text;html=1;align=center;verticalAlign=middle;whiteSpace=wrap;rounded=0;" parent="1" vertex="1">
          <mxGeometry x="1040" y="160" width="60" height="30" as="geometry" />
        </mxCell>
        <mxCell id="IT8jkF3c_iKPxxVVUz1t-27" value="IRQ" style="text;html=1;align=center;verticalAlign=middle;whiteSpace=wrap;rounded=0;" parent="1" vertex="1">
          <mxGeometry x="1070" y="160" width="60" height="30" as="geometry" />
        </mxCell>
        <mxCell id="IT8jkF3c_iKPxxVVUz1t-28" value="NMI" style="text;html=1;align=center;verticalAlign=middle;whiteSpace=wrap;rounded=0;" parent="1" vertex="1">
          <mxGeometry x="1100" y="160" width="60" height="30" as="geometry" />
        </mxCell>
        <mxCell id="IT8jkF3c_iKPxxVVUz1t-31" value="" style="endArrow=none;html=1;rounded=0;" parent="1" edge="1">
          <mxGeometry width="50" height="50" relative="1" as="geometry">
            <mxPoint x="1080" y="169" as="sourcePoint" />
            <mxPoint x="1060" y="169" as="targetPoint" />
          </mxGeometry>
        </mxCell>
        <mxCell id="IT8jkF3c_iKPxxVVUz1t-34" value="" style="endArrow=none;html=1;rounded=0;" parent="1" edge="1">
          <mxGeometry width="50" height="50" relative="1" as="geometry">
            <mxPoint x="1110" y="169" as="sourcePoint" />
            <mxPoint x="1090" y="169" as="targetPoint" />
          </mxGeometry>
        </mxCell>
        <mxCell id="IT8jkF3c_iKPxxVVUz1t-35" value="" style="endArrow=none;html=1;rounded=0;" parent="1" edge="1">
          <mxGeometry width="50" height="50" relative="1" as="geometry">
            <mxPoint x="1140" y="169" as="sourcePoint" />
            <mxPoint x="1120" y="169" as="targetPoint" />
          </mxGeometry>
        </mxCell>
        <mxCell id="IT8jkF3c_iKPxxVVUz1t-36" value="INDEX &lt;br&gt;REGISTER&lt;div&gt;X&lt;/div&gt;" style="rounded=0;whiteSpace=wrap;html=1;" parent="1" vertex="1">
          <mxGeometry x="680" y="210" width="120" height="60" as="geometry" />
        </mxCell>
        <mxCell id="IT8jkF3c_iKPxxVVUz1t-37" value="INDEX &lt;br&gt;REGISTER&lt;div&gt;Y&lt;/div&gt;" style="rounded=0;whiteSpace=wrap;html=1;" parent="1" vertex="1">
          <mxGeometry x="680" y="330" width="120" height="60" as="geometry" />
        </mxCell>
        <mxCell id="IT8jkF3c_iKPxxVVUz1t-38" value="STACK POINT&lt;br&gt;REGISTER (S)" style="rounded=0;whiteSpace=wrap;html=1;" parent="1" vertex="1">
          <mxGeometry x="680" y="450" width="120" height="60" as="geometry" />
        </mxCell>
        <mxCell id="IT8jkF3c_iKPxxVVUz1t-39" value="&lt;div&gt;&lt;br&gt;&lt;/div&gt;ALU&lt;br&gt;&lt;div&gt;&lt;br&gt;&lt;/div&gt;" style="rounded=0;whiteSpace=wrap;html=1;" parent="1" vertex="1">
          <mxGeometry x="680" y="570" width="120" height="80" as="geometry" />
        </mxCell>
        <mxCell id="IT8jkF3c_iKPxxVVUz1t-40" value="&lt;div&gt;ACCUMULATOR&lt;br&gt;A&lt;/div&gt;" style="rounded=0;whiteSpace=wrap;html=1;" parent="1" vertex="1">
          <mxGeometry x="680" y="680" width="120" height="60" as="geometry" />
        </mxCell>
        <mxCell id="IT8jkF3c_iKPxxVVUz1t-41" value="PCL" style="rounded=0;whiteSpace=wrap;html=1;" parent="1" vertex="1">
          <mxGeometry x="740" y="840" width="60" height="50" as="geometry" />
        </mxCell>
        <mxCell id="IT8jkF3c_iKPxxVVUz1t-42" value="PCH" style="rounded=0;whiteSpace=wrap;html=1;" parent="1" vertex="1">
          <mxGeometry x="740" y="890" width="60" height="50" as="geometry" />
        </mxCell>
        <mxCell id="IT8jkF3c_iKPxxVVUz1t-43" value="INPUT DATA&lt;br&gt;LATCH&lt;br&gt;(DL)" style="rounded=0;whiteSpace=wrap;html=1;" parent="1" vertex="1">
          <mxGeometry x="680" y="970" width="120" height="60" as="geometry" />
        </mxCell>
        <mxCell id="IT8jkF3c_iKPxxVVUz1t-44" value="DATA BUS&lt;br&gt;BUFFER" style="rounded=0;whiteSpace=wrap;html=1;" parent="1" vertex="1">
          <mxGeometry x="670" y="1090" width="130" height="70" as="geometry" />
        </mxCell>
        <mxCell id="IT8jkF3c_iKPxxVVUz1t-46" value="" style="rounded=0;whiteSpace=wrap;html=1;fillColor=#dae8fc;strokeColor=#6c8ebf;" parent="1" vertex="1">
          <mxGeometry x="850" y="170" width="20" height="1040" as="geometry" />
        </mxCell>
        <mxCell id="IT8jkF3c_iKPxxVVUz1t-47" value="" style="shape=flexArrow;endArrow=classic;startArrow=classic;html=1;rounded=0;exitX=1;exitY=0.5;exitDx=0;exitDy=0;fillColor=#dae8fc;strokeColor=#6c8ebf;" parent="1" edge="1">
          <mxGeometry width="100" height="100" relative="1" as="geometry">
            <mxPoint x="800" y="230.00000000000006" as="sourcePoint" />
            <mxPoint x="850" y="230.14" as="targetPoint" />
          </mxGeometry>
        </mxCell>
        <mxCell id="IT8jkF3c_iKPxxVVUz1t-48" value="" style="shape=flexArrow;endArrow=classic;startArrow=classic;html=1;rounded=0;exitX=1;exitY=0.5;exitDx=0;exitDy=0;fillColor=#dae8fc;strokeColor=#6c8ebf;" parent="1" edge="1">
          <mxGeometry width="100" height="100" relative="1" as="geometry">
            <mxPoint x="800" y="348.00000000000006" as="sourcePoint" />
            <mxPoint x="850" y="348.14" as="targetPoint" />
          </mxGeometry>
        </mxCell>
        <mxCell id="IT8jkF3c_iKPxxVVUz1t-49" value="" style="shape=flexArrow;endArrow=classic;startArrow=classic;html=1;rounded=0;exitX=1;exitY=0.5;exitDx=0;exitDy=0;fillColor=#dae8fc;strokeColor=#6c8ebf;" parent="1" edge="1">
          <mxGeometry width="100" height="100" relative="1" as="geometry">
            <mxPoint x="800" y="469.71000000000004" as="sourcePoint" />
            <mxPoint x="850" y="469.84999999999997" as="targetPoint" />
          </mxGeometry>
        </mxCell>
        <mxCell id="IT8jkF3c_iKPxxVVUz1t-50" value="" style="shape=flexArrow;endArrow=classic;startArrow=classic;html=1;rounded=0;exitX=1;exitY=0.5;exitDx=0;exitDy=0;fillColor=#dae8fc;strokeColor=#6c8ebf;" parent="1" edge="1">
          <mxGeometry width="100" height="100" relative="1" as="geometry">
            <mxPoint x="800" y="589.71" as="sourcePoint" />
            <mxPoint x="850" y="589.8499999999999" as="targetPoint" />
          </mxGeometry>
        </mxCell>
        <mxCell id="IT8jkF3c_iKPxxVVUz1t-51" value="" style="shape=flexArrow;endArrow=classic;startArrow=classic;html=1;rounded=0;exitX=1;exitY=0.5;exitDx=0;exitDy=0;fillColor=#dae8fc;strokeColor=#6c8ebf;" parent="1" edge="1">
          <mxGeometry width="100" height="100" relative="1" as="geometry">
            <mxPoint x="800" y="700" as="sourcePoint" />
            <mxPoint x="850" y="700.14" as="targetPoint" />
          </mxGeometry>
        </mxCell>
        <mxCell id="IT8jkF3c_iKPxxVVUz1t-52" value="" style="shape=flexArrow;endArrow=classic;startArrow=classic;html=1;rounded=0;exitX=1;exitY=0.5;exitDx=0;exitDy=0;fillColor=#dae8fc;strokeColor=#6c8ebf;" parent="1" edge="1">
          <mxGeometry width="100" height="100" relative="1" as="geometry">
            <mxPoint x="800" y="854" as="sourcePoint" />
            <mxPoint x="850" y="854.14" as="targetPoint" />
          </mxGeometry>
        </mxCell>
        <mxCell id="IT8jkF3c_iKPxxVVUz1t-53" value="" style="shape=flexArrow;endArrow=classic;startArrow=classic;html=1;rounded=0;exitX=1;exitY=0.5;exitDx=0;exitDy=0;fillColor=#dae8fc;strokeColor=#6c8ebf;" parent="1" edge="1">
          <mxGeometry width="100" height="100" relative="1" as="geometry">
            <mxPoint x="800" y="914.5" as="sourcePoint" />
            <mxPoint x="850" y="914.64" as="targetPoint" />
          </mxGeometry>
        </mxCell>
        <mxCell id="IT8jkF3c_iKPxxVVUz1t-56" value="" style="endArrow=classic;html=1;rounded=0;exitX=0;exitY=0.929;exitDx=0;exitDy=0;exitPerimeter=0;" parent="1" edge="1">
          <mxGeometry width="50" height="50" relative="1" as="geometry">
            <mxPoint x="1039.9999999999998" y="674.0999999999999" as="sourcePoint" />
            <mxPoint x="801" y="1020" as="targetPoint" />
            <Array as="points">
              <mxPoint x="1010" y="674" />
              <mxPoint x="1010" y="870" />
              <mxPoint x="890" y="869.66" />
              <mxPoint x="890" y="1020" />
            </Array>
          </mxGeometry>
        </mxCell>
        <mxCell id="IT8jkF3c_iKPxxVVUz1t-57" value="" style="endArrow=classic;html=1;rounded=0;exitX=0.001;exitY=0.861;exitDx=0;exitDy=0;exitPerimeter=0;entryX=1;entryY=0.75;entryDx=0;entryDy=0;" parent="1" edge="1" target="IT8jkF3c_iKPxxVVUz1t-41">
          <mxGeometry width="50" height="50" relative="1" as="geometry">
            <mxPoint x="1040.0000000000002" y="644" as="sourcePoint" />
            <mxPoint x="799.88" y="851.54" as="targetPoint" />
            <Array as="points">
              <mxPoint x="969.8800000000001" y="644.04" />
              <mxPoint x="970" y="840" />
              <mxPoint x="920" y="840" />
              <mxPoint x="880" y="840" />
              <mxPoint x="880" y="878" />
            </Array>
          </mxGeometry>
        </mxCell>
        <mxCell id="IT8jkF3c_iKPxxVVUz1t-59" value="" style="rounded=0;whiteSpace=wrap;html=1;fillColor=#dae8fc;strokeColor=#6c8ebf;" parent="1" vertex="1">
          <mxGeometry x="610" y="170" width="20" height="1040" as="geometry" />
        </mxCell>
        <mxCell id="IT8jkF3c_iKPxxVVUz1t-60" value="" style="shape=flexArrow;endArrow=classic;html=1;rounded=0;entryX=1.009;entryY=0.313;entryDx=0;entryDy=0;entryPerimeter=0;exitX=0;exitY=0.75;exitDx=0;exitDy=0;fillColor=#dae8fc;strokeColor=#6c8ebf;" parent="1" edge="1">
          <mxGeometry width="50" height="50" relative="1" as="geometry">
            <mxPoint x="680" y="479.74" as="sourcePoint" />
            <mxPoint x="630.18" y="480.2600000000001" as="targetPoint" />
          </mxGeometry>
        </mxCell>
        <mxCell id="IT8jkF3c_iKPxxVVUz1t-61" value="" style="shape=flexArrow;endArrow=classic;html=1;rounded=0;entryX=1.009;entryY=0.313;entryDx=0;entryDy=0;entryPerimeter=0;exitX=0;exitY=0.75;exitDx=0;exitDy=0;fillColor=#dae8fc;strokeColor=#6c8ebf;" parent="1" edge="1">
          <mxGeometry width="50" height="50" relative="1" as="geometry">
            <mxPoint x="680" y="589.74" as="sourcePoint" />
            <mxPoint x="630.18" y="590.2600000000002" as="targetPoint" />
          </mxGeometry>
        </mxCell>
        <mxCell id="IT8jkF3c_iKPxxVVUz1t-63" value="" style="shape=flexArrow;endArrow=classic;html=1;rounded=0;entryX=1.009;entryY=0.313;entryDx=0;entryDy=0;entryPerimeter=0;exitX=0;exitY=0.75;exitDx=0;exitDy=0;fillColor=#dae8fc;strokeColor=#6c8ebf;" parent="1" edge="1">
          <mxGeometry width="50" height="50" relative="1" as="geometry">
            <mxPoint x="679.8199999999999" y="987" as="sourcePoint" />
            <mxPoint x="630" y="987.5200000000002" as="targetPoint" />
          </mxGeometry>
        </mxCell>
        <mxCell id="IT8jkF3c_iKPxxVVUz1t-64" value="" style="shape=flexArrow;endArrow=classic;html=1;rounded=0;entryX=1.009;entryY=0.313;entryDx=0;entryDy=0;entryPerimeter=0;exitX=0;exitY=0.75;exitDx=0;exitDy=0;fillColor=#dae8fc;strokeColor=#6c8ebf;" parent="1" edge="1">
          <mxGeometry width="50" height="50" relative="1" as="geometry">
            <mxPoint x="849.8199999999999" y="987" as="sourcePoint" />
            <mxPoint x="800" y="987.5200000000002" as="targetPoint" />
          </mxGeometry>
        </mxCell>
        <mxCell id="IT8jkF3c_iKPxxVVUz1t-67" value="ABL" style="rounded=0;whiteSpace=wrap;html=1;" parent="1" vertex="1">
          <mxGeometry x="380" y="200" width="80" height="400" as="geometry" />
        </mxCell>
        <mxCell id="IT8jkF3c_iKPxxVVUz1t-68" value="" style="rounded=0;whiteSpace=wrap;html=1;fillColor=#dae8fc;strokeColor=#6c8ebf;" parent="1" vertex="1">
          <mxGeometry x="530" y="440" width="20" height="770" as="geometry" />
        </mxCell>
        <mxCell id="IT8jkF3c_iKPxxVVUz1t-69" value="INTERNAL ADL" style="text;html=1;align=center;verticalAlign=middle;whiteSpace=wrap;rounded=0;rotation=-90;" parent="1" vertex="1">
          <mxGeometry x="540" y="684" width="160" height="30" as="geometry" />
        </mxCell>
        <mxCell id="IT8jkF3c_iKPxxVVUz1t-70" value="INTERNAL DATA BUS" style="text;html=1;align=center;verticalAlign=middle;whiteSpace=wrap;rounded=0;rotation=-90;" parent="1" vertex="1">
          <mxGeometry x="780" y="600" width="160" height="30" as="geometry" />
        </mxCell>
        <mxCell id="IT8jkF3c_iKPxxVVUz1t-71" value="INTERNAL ADH" style="text;html=1;align=center;verticalAlign=middle;whiteSpace=wrap;rounded=0;rotation=-90;" parent="1" vertex="1">
          <mxGeometry x="460" y="790" width="160" height="30" as="geometry" />
        </mxCell>
        <mxCell id="IT8jkF3c_iKPxxVVUz1t-72" value="" style="shape=flexArrow;endArrow=classic;html=1;rounded=0;entryX=1;entryY=0.5;entryDx=0;entryDy=0;exitX=0.032;exitY=0.221;exitDx=0;exitDy=0;exitPerimeter=0;fillColor=#dae8fc;strokeColor=#6c8ebf;" parent="1" source="IT8jkF3c_iKPxxVVUz1t-59" target="IT8jkF3c_iKPxxVVUz1t-67" edge="1">
          <mxGeometry width="50" height="50" relative="1" as="geometry">
            <mxPoint x="610" y="359.57000000000005" as="sourcePoint" />
            <mxPoint x="560.18" y="360.09000000000015" as="targetPoint" />
          </mxGeometry>
        </mxCell>
        <mxCell id="IT8jkF3c_iKPxxVVUz1t-73" value="ABH" style="rounded=0;whiteSpace=wrap;html=1;" parent="1" vertex="1">
          <mxGeometry x="380" y="750" width="80" height="400" as="geometry" />
        </mxCell>
        <mxCell id="IT8jkF3c_iKPxxVVUz1t-75" value="" style="shape=flexArrow;endArrow=classic;html=1;rounded=0;entryX=0;entryY=0.75;entryDx=0;entryDy=0;exitX=0;exitY=0.75;exitDx=0;exitDy=0;fillColor=#dae8fc;strokeColor=#6c8ebf;" parent="1" edge="1">
          <mxGeometry width="50" height="50" relative="1" as="geometry">
            <mxPoint x="681.8199999999999" y="1020" as="sourcePoint" />
            <mxPoint x="550" y="1020.3400000000001" as="targetPoint" />
          </mxGeometry>
        </mxCell>
        <mxCell id="IT8jkF3c_iKPxxVVUz1t-76" value="" style="shape=flexArrow;endArrow=classic;html=1;rounded=0;entryX=1.012;entryY=0.526;entryDx=0;entryDy=0;entryPerimeter=0;exitX=0;exitY=0.75;exitDx=0;exitDy=0;fillColor=#dae8fc;strokeColor=#6c8ebf;" parent="1" target="IT8jkF3c_iKPxxVVUz1t-73" edge="1">
          <mxGeometry width="50" height="50" relative="1" as="geometry">
            <mxPoint x="530" y="960" as="sourcePoint" />
            <mxPoint x="480.17999999999995" y="960.5200000000001" as="targetPoint" />
          </mxGeometry>
        </mxCell>
        <mxCell id="IT8jkF3c_iKPxxVVUz1t-77" value="" style="shape=flexArrow;endArrow=classic;html=1;rounded=0;exitX=0;exitY=0.75;exitDx=0;exitDy=0;fillColor=#dae8fc;strokeColor=#6c8ebf;" parent="1" edge="1">
          <mxGeometry width="50" height="50" relative="1" as="geometry">
            <mxPoint x="680" y="630" as="sourcePoint" />
            <mxPoint x="551" y="630" as="targetPoint" />
          </mxGeometry>
        </mxCell>
        <mxCell id="IT8jkF3c_iKPxxVVUz1t-78" value="PROCESS STATUS REGISTER&amp;nbsp;&lt;div&gt;P&lt;/div&gt;" style="rounded=0;whiteSpace=wrap;html=1;" parent="1" vertex="1">
          <mxGeometry x="940" y="880" width="150" height="80" as="geometry" />
        </mxCell>
        <mxCell id="IT8jkF3c_iKPxxVVUz1t-79" value="" style="shape=flexArrow;endArrow=classic;html=1;rounded=0;entryX=-0.011;entryY=0.655;entryDx=0;entryDy=0;entryPerimeter=0;exitX=1;exitY=0.731;exitDx=0;exitDy=0;fillColor=#dae8fc;strokeColor=#6c8ebf;exitPerimeter=0;" parent="1" source="IT8jkF3c_iKPxxVVUz1t-46" edge="1">
          <mxGeometry width="50" height="50" relative="1" as="geometry">
            <mxPoint x="873.7399999999999" y="929.9599999999999" as="sourcePoint" />
            <mxPoint x="939.9999999999995" y="929.66" as="targetPoint" />
          </mxGeometry>
        </mxCell>
        <mxCell id="IT8jkF3c_iKPxxVVUz1t-80" value="" style="shape=flexArrow;endArrow=classic;startArrow=classic;html=1;rounded=0;exitX=0.867;exitY=0;exitDx=0;exitDy=0;exitPerimeter=0;entryX=0.25;entryY=1;entryDx=0;entryDy=0;fillColor=#dae8fc;strokeColor=#6c8ebf;" parent="1" source="IT8jkF3c_iKPxxVVUz1t-78" target="IT8jkF3c_iKPxxVVUz1t-1" edge="1">
          <mxGeometry width="100" height="100" relative="1" as="geometry">
            <mxPoint x="990" y="780" as="sourcePoint" />
            <mxPoint x="1090" y="680" as="targetPoint" />
          </mxGeometry>
        </mxCell>
        <mxCell id="IT8jkF3c_iKPxxVVUz1t-81" value="INSTRUCTION REGISTER" style="rounded=0;whiteSpace=wrap;html=1;" parent="1" vertex="1">
          <mxGeometry x="970" y="1080" width="200" height="80" as="geometry" />
        </mxCell>
        <mxCell id="IT8jkF3c_iKPxxVVUz1t-82" value="" style="shape=flexArrow;endArrow=classic;startArrow=classic;html=1;rounded=0;fillColor=#dae8fc;strokeColor=#6c8ebf;exitX=0.85;exitY=0;exitDx=0;exitDy=0;exitPerimeter=0;" parent="1" source="IT8jkF3c_iKPxxVVUz1t-81" edge="1">
          <mxGeometry width="100" height="100" relative="1" as="geometry">
            <mxPoint x="1143" y="1070" as="sourcePoint" />
            <mxPoint x="1140" y="690" as="targetPoint" />
          </mxGeometry>
        </mxCell>
        <mxCell id="IT8jkF3c_iKPxxVVUz1t-84" value="" style="endArrow=classic;html=1;rounded=0;entryX=1.017;entryY=0.84;entryDx=0;entryDy=0;entryPerimeter=0;" parent="1" target="IT8jkF3c_iKPxxVVUz1t-36" edge="1">
          <mxGeometry width="50" height="50" relative="1" as="geometry">
            <mxPoint x="1040" y="360" as="sourcePoint" />
            <mxPoint x="790" y="210" as="targetPoint" />
            <Array as="points">
              <mxPoint x="970" y="360" />
              <mxPoint x="970" y="260" />
            </Array>
          </mxGeometry>
        </mxCell>
        <mxCell id="IT8jkF3c_iKPxxVVUz1t-85" value="" style="endArrow=classic;html=1;rounded=0;exitX=0.014;exitY=0.305;exitDx=0;exitDy=0;entryX=1.017;entryY=0.84;entryDx=0;entryDy=0;entryPerimeter=0;exitPerimeter=0;" parent="1" source="IT8jkF3c_iKPxxVVUz1t-1" edge="1">
          <mxGeometry width="50" height="50" relative="1" as="geometry">
            <mxPoint x="1038" y="480" as="sourcePoint" />
            <mxPoint x="800" y="380" as="targetPoint" />
            <Array as="points">
              <mxPoint x="970" y="440" />
              <mxPoint x="970" y="380" />
            </Array>
          </mxGeometry>
        </mxCell>
        <mxCell id="IT8jkF3c_iKPxxVVUz1t-86" value="" style="endArrow=classic;html=1;rounded=0;entryX=1;entryY=0.833;entryDx=0;entryDy=0;entryPerimeter=0;exitX=0.004;exitY=0.471;exitDx=0;exitDy=0;exitPerimeter=0;" parent="1" source="IT8jkF3c_iKPxxVVUz1t-1" target="IT8jkF3c_iKPxxVVUz1t-38" edge="1">
          <mxGeometry width="50" height="50" relative="1" as="geometry">
            <mxPoint x="1030" y="500" as="sourcePoint" />
            <mxPoint x="1010" y="460" as="targetPoint" />
          </mxGeometry>
        </mxCell>
        <mxCell id="IT8jkF3c_iKPxxVVUz1t-87" value="" style="endArrow=classic;html=1;rounded=0;entryX=1;entryY=0.75;entryDx=0;entryDy=0;exitX=-0.001;exitY=0.606;exitDx=0;exitDy=0;exitPerimeter=0;" parent="1" target="IT8jkF3c_iKPxxVVUz1t-39" edge="1">
          <mxGeometry width="50" height="50" relative="1" as="geometry">
            <mxPoint x="1040" y="540" as="sourcePoint" />
            <mxPoint x="800" y="540" as="targetPoint" />
            <Array as="points">
              <mxPoint x="910" y="540" />
              <mxPoint x="910" y="630" />
            </Array>
          </mxGeometry>
        </mxCell>
        <mxCell id="IT8jkF3c_iKPxxVVUz1t-88" value="" style="endArrow=classic;html=1;rounded=0;exitX=0;exitY=0.667;exitDx=0;exitDy=0;exitPerimeter=0;entryX=1;entryY=0.833;entryDx=0;entryDy=0;entryPerimeter=0;" parent="1" target="IT8jkF3c_iKPxxVVUz1t-40" edge="1" source="IT8jkF3c_iKPxxVVUz1t-1">
          <mxGeometry width="50" height="50" relative="1" as="geometry">
            <mxPoint x="1040" y="581.5" as="sourcePoint" />
            <mxPoint x="810" y="730" as="targetPoint" />
            <Array as="points">
              <mxPoint x="950" y="570" />
              <mxPoint x="950" y="730" />
            </Array>
          </mxGeometry>
        </mxCell>
        <mxCell id="IT8jkF3c_iKPxxVVUz1t-89" value="" style="endArrow=classic;startArrow=classic;html=1;rounded=0;exitX=1;exitY=0.709;exitDx=0;exitDy=0;exitPerimeter=0;" parent="1" edge="1">
          <mxGeometry width="50" height="50" relative="1" as="geometry">
            <mxPoint x="800" y="1129.6299999999999" as="sourcePoint" />
            <mxPoint x="1410" y="990" as="targetPoint" />
            <Array as="points">
              <mxPoint x="910" y="1130" />
              <mxPoint x="910" y="990" />
            </Array>
          </mxGeometry>
        </mxCell>
        <mxCell id="IT8jkF3c_iKPxxVVUz1t-90" value="R/W" style="text;html=1;align=center;verticalAlign=middle;resizable=0;points=[];autosize=1;strokeColor=none;fillColor=none;" parent="1" vertex="1">
          <mxGeometry x="1400" y="975" width="50" height="30" as="geometry" />
        </mxCell>
        <mxCell id="IT8jkF3c_iKPxxVVUz1t-92" value="" style="endArrow=classic;startArrow=classic;html=1;rounded=0;exitX=1.016;exitY=0.926;exitDx=0;exitDy=0;exitPerimeter=0;" parent="1" edge="1">
          <mxGeometry width="50" height="50" relative="1" as="geometry">
            <mxPoint x="800.0000000000001" y="1149.82" as="sourcePoint" />
            <mxPoint x="1410" y="1010" as="targetPoint" />
            <Array as="points">
              <mxPoint x="930" y="1150" />
              <mxPoint x="930" y="1010" />
            </Array>
          </mxGeometry>
        </mxCell>
        <mxCell id="IT8jkF3c_iKPxxVVUz1t-97" value="DBE" style="text;html=1;align=center;verticalAlign=middle;resizable=0;points=[];autosize=1;strokeColor=none;fillColor=none;" parent="1" vertex="1">
          <mxGeometry x="1400" y="995" width="50" height="30" as="geometry" />
        </mxCell>
        <mxCell id="IT8jkF3c_iKPxxVVUz1t-98" value="" style="endArrow=none;html=1;rounded=0;" parent="1" source="IT8jkF3c_iKPxxVVUz1t-103" edge="1">
          <mxGeometry width="50" height="50" relative="1" as="geometry">
            <mxPoint x="1111" y="990" as="sourcePoint" />
            <mxPoint x="1111" y="690" as="targetPoint" />
          </mxGeometry>
        </mxCell>
        <mxCell id="IT8jkF3c_iKPxxVVUz1t-100" value="" style="ellipse;whiteSpace=wrap;html=1;strokeColor=default;fillColor=#000000;" parent="1" vertex="1">
          <mxGeometry x="1108.5" y="687.5" width="5" height="5" as="geometry" />
        </mxCell>
        <mxCell id="IT8jkF3c_iKPxxVVUz1t-106" value="" style="endArrow=none;html=1;rounded=0;" parent="1" target="IT8jkF3c_iKPxxVVUz1t-103" edge="1">
          <mxGeometry width="50" height="50" relative="1" as="geometry">
            <mxPoint x="1111" y="990" as="sourcePoint" />
            <mxPoint x="1111" y="690" as="targetPoint" />
          </mxGeometry>
        </mxCell>
        <mxCell id="IT8jkF3c_iKPxxVVUz1t-103" value="" style="ellipse;whiteSpace=wrap;html=1;strokeColor=default;fillColor=#000000;" parent="1" vertex="1">
          <mxGeometry x="1108.5" y="987.5" width="5" height="5" as="geometry" />
        </mxCell>
        <mxCell id="IT8jkF3c_iKPxxVVUz1t-107" value="" style="endArrow=classic;startArrow=classic;html=1;rounded=0;" parent="1" edge="1">
          <mxGeometry width="50" height="50" relative="1" as="geometry">
            <mxPoint x="1410" y="1230" as="sourcePoint" />
            <mxPoint x="770" y="1160" as="targetPoint" />
            <Array as="points">
              <mxPoint x="770" y="1230" />
            </Array>
          </mxGeometry>
        </mxCell>
        <mxCell id="IT8jkF3c_iKPxxVVUz1t-108" value="" style="endArrow=classic;startArrow=classic;html=1;rounded=0;" parent="1" edge="1">
          <mxGeometry width="50" height="50" relative="1" as="geometry">
            <mxPoint x="1410" y="1240" as="sourcePoint" />
            <mxPoint x="760" y="1160" as="targetPoint" />
            <Array as="points">
              <mxPoint x="760" y="1240" />
            </Array>
          </mxGeometry>
        </mxCell>
        <mxCell id="IT8jkF3c_iKPxxVVUz1t-109" value="" style="endArrow=classic;startArrow=classic;html=1;rounded=0;entryX=0.615;entryY=1;entryDx=0;entryDy=0;entryPerimeter=0;" parent="1" target="IT8jkF3c_iKPxxVVUz1t-44" edge="1">
          <mxGeometry width="50" height="50" relative="1" as="geometry">
            <mxPoint x="1410" y="1250" as="sourcePoint" />
            <mxPoint x="750" y="1170" as="targetPoint" />
            <Array as="points">
              <mxPoint x="750" y="1250" />
            </Array>
          </mxGeometry>
        </mxCell>
        <mxCell id="IT8jkF3c_iKPxxVVUz1t-110" value="" style="endArrow=classic;startArrow=classic;html=1;rounded=0;entryX=0.538;entryY=1;entryDx=0;entryDy=0;entryPerimeter=0;" parent="1" target="IT8jkF3c_iKPxxVVUz1t-44" edge="1">
          <mxGeometry width="50" height="50" relative="1" as="geometry">
            <mxPoint x="1410" y="1260" as="sourcePoint" />
            <mxPoint x="740" y="1170" as="targetPoint" />
            <Array as="points">
              <mxPoint x="740" y="1260" />
            </Array>
          </mxGeometry>
        </mxCell>
        <mxCell id="IT8jkF3c_iKPxxVVUz1t-112" value="" style="endArrow=classic;startArrow=classic;html=1;rounded=0;entryX=0.462;entryY=1;entryDx=0;entryDy=0;entryPerimeter=0;" parent="1" target="IT8jkF3c_iKPxxVVUz1t-44" edge="1">
          <mxGeometry width="50" height="50" relative="1" as="geometry">
            <mxPoint x="1410" y="1270" as="sourcePoint" />
            <mxPoint x="750" y="1160" as="targetPoint" />
            <Array as="points">
              <mxPoint x="1070" y="1270" />
              <mxPoint x="730" y="1270" />
            </Array>
          </mxGeometry>
        </mxCell>
        <mxCell id="IT8jkF3c_iKPxxVVUz1t-113" value="" style="endArrow=classic;startArrow=classic;html=1;rounded=0;entryX=0.385;entryY=1;entryDx=0;entryDy=0;entryPerimeter=0;" parent="1" target="IT8jkF3c_iKPxxVVUz1t-44" edge="1">
          <mxGeometry width="50" height="50" relative="1" as="geometry">
            <mxPoint x="1410" y="1280" as="sourcePoint" />
            <mxPoint x="740" y="1160" as="targetPoint" />
            <Array as="points">
              <mxPoint x="720" y="1280" />
            </Array>
          </mxGeometry>
        </mxCell>
        <mxCell id="IT8jkF3c_iKPxxVVUz1t-114" value="" style="endArrow=classic;startArrow=classic;html=1;rounded=0;" parent="1" edge="1">
          <mxGeometry width="50" height="50" relative="1" as="geometry">
            <mxPoint x="1410" y="1290" as="sourcePoint" />
            <mxPoint x="710" y="1160" as="targetPoint" />
            <Array as="points">
              <mxPoint x="710" y="1290" />
            </Array>
          </mxGeometry>
        </mxCell>
        <mxCell id="IT8jkF3c_iKPxxVVUz1t-115" value="" style="endArrow=classic;startArrow=classic;html=1;rounded=0;" parent="1" edge="1">
          <mxGeometry width="50" height="50" relative="1" as="geometry">
            <mxPoint x="1410" y="1300" as="sourcePoint" />
            <mxPoint x="700" y="1160" as="targetPoint" />
            <Array as="points">
              <mxPoint x="700" y="1300" />
            </Array>
          </mxGeometry>
        </mxCell>
        <mxCell id="IT8jkF3c_iKPxxVVUz1t-116" value="DB0" style="text;html=1;align=center;verticalAlign=middle;resizable=0;points=[];autosize=1;strokeColor=none;fillColor=none;" parent="1" vertex="1">
          <mxGeometry x="1399" y="1214" width="50" height="30" as="geometry" />
        </mxCell>
        <mxCell id="IT8jkF3c_iKPxxVVUz1t-117" value="DB1" style="text;html=1;align=center;verticalAlign=middle;resizable=0;points=[];autosize=1;strokeColor=none;fillColor=none;" parent="1" vertex="1">
          <mxGeometry x="1399" y="1225" width="50" height="30" as="geometry" />
        </mxCell>
        <mxCell id="IT8jkF3c_iKPxxVVUz1t-118" value="DB2" style="text;html=1;align=center;verticalAlign=middle;resizable=0;points=[];autosize=1;strokeColor=none;fillColor=none;" parent="1" vertex="1">
          <mxGeometry x="1399" y="1236" width="50" height="30" as="geometry" />
        </mxCell>
        <mxCell id="IT8jkF3c_iKPxxVVUz1t-119" value="DB3" style="text;html=1;align=center;verticalAlign=middle;resizable=0;points=[];autosize=1;strokeColor=none;fillColor=none;" parent="1" vertex="1">
          <mxGeometry x="1399" y="1245" width="50" height="30" as="geometry" />
        </mxCell>
        <mxCell id="IT8jkF3c_iKPxxVVUz1t-120" value="DB4" style="text;html=1;align=center;verticalAlign=middle;resizable=0;points=[];autosize=1;strokeColor=none;fillColor=none;" parent="1" vertex="1">
          <mxGeometry x="1399" y="1255" width="50" height="30" as="geometry" />
        </mxCell>
        <mxCell id="IT8jkF3c_iKPxxVVUz1t-121" value="DB5" style="text;html=1;align=center;verticalAlign=middle;resizable=0;points=[];autosize=1;strokeColor=none;fillColor=none;" parent="1" vertex="1">
          <mxGeometry x="1399" y="1265" width="50" height="30" as="geometry" />
        </mxCell>
        <mxCell id="IT8jkF3c_iKPxxVVUz1t-122" value="DB6" style="text;html=1;align=center;verticalAlign=middle;resizable=0;points=[];autosize=1;strokeColor=none;fillColor=none;" parent="1" vertex="1">
          <mxGeometry x="1399" y="1275" width="50" height="30" as="geometry" />
        </mxCell>
        <mxCell id="IT8jkF3c_iKPxxVVUz1t-123" value="DB7" style="text;html=1;align=center;verticalAlign=middle;resizable=0;points=[];autosize=1;strokeColor=none;fillColor=none;" parent="1" vertex="1">
          <mxGeometry x="1399" y="1285" width="50" height="30" as="geometry" />
        </mxCell>
        <mxCell id="IT8jkF3c_iKPxxVVUz1t-125" value="" style="endArrow=classic;html=1;rounded=0;entryX=0.2;entryY=1;entryDx=0;entryDy=0;entryPerimeter=0;" parent="1" edge="1">
          <mxGeometry width="50" height="50" relative="1" as="geometry">
            <mxPoint x="1039.72" y="1300" as="sourcePoint" />
            <mxPoint x="1039.72" y="1160" as="targetPoint" />
          </mxGeometry>
        </mxCell>
        <mxCell id="IT8jkF3c_iKPxxVVUz1t-126" value="" style="endArrow=classic;html=1;rounded=0;entryX=0.2;entryY=1;entryDx=0;entryDy=0;entryPerimeter=0;" parent="1" edge="1">
          <mxGeometry width="50" height="50" relative="1" as="geometry">
            <mxPoint x="1050" y="1290" as="sourcePoint" />
            <mxPoint x="1050" y="1160" as="targetPoint" />
          </mxGeometry>
        </mxCell>
        <mxCell id="IT8jkF3c_iKPxxVVUz1t-127" value="" style="endArrow=classic;html=1;rounded=0;" parent="1" edge="1">
          <mxGeometry width="50" height="50" relative="1" as="geometry">
            <mxPoint x="1060" y="1280" as="sourcePoint" />
            <mxPoint x="1060" y="1160" as="targetPoint" />
          </mxGeometry>
        </mxCell>
        <mxCell id="IT8jkF3c_iKPxxVVUz1t-128" value="" style="endArrow=classic;html=1;rounded=0;" parent="1" edge="1">
          <mxGeometry width="50" height="50" relative="1" as="geometry">
            <mxPoint x="1069.72" y="1270" as="sourcePoint" />
            <mxPoint x="1069.72" y="1160" as="targetPoint" />
          </mxGeometry>
        </mxCell>
        <mxCell id="IT8jkF3c_iKPxxVVUz1t-129" value="" style="endArrow=classic;html=1;rounded=0;" parent="1" edge="1">
          <mxGeometry width="50" height="50" relative="1" as="geometry">
            <mxPoint x="1080" y="1260" as="sourcePoint" />
            <mxPoint x="1080" y="1160" as="targetPoint" />
          </mxGeometry>
        </mxCell>
        <mxCell id="IT8jkF3c_iKPxxVVUz1t-130" value="" style="endArrow=classic;html=1;rounded=0;entryX=0.7;entryY=1;entryDx=0;entryDy=0;entryPerimeter=0;" parent="1" edge="1">
          <mxGeometry width="50" height="50" relative="1" as="geometry">
            <mxPoint x="1090" y="1250" as="sourcePoint" />
            <mxPoint x="1090" y="1160" as="targetPoint" />
          </mxGeometry>
        </mxCell>
        <mxCell id="IT8jkF3c_iKPxxVVUz1t-131" value="" style="endArrow=classic;html=1;rounded=0;" parent="1" edge="1">
          <mxGeometry width="50" height="50" relative="1" as="geometry">
            <mxPoint x="1100.17" y="1240" as="sourcePoint" />
            <mxPoint x="1100" y="1160" as="targetPoint" />
          </mxGeometry>
        </mxCell>
        <mxCell id="IT8jkF3c_iKPxxVVUz1t-132" value="" style="endArrow=classic;html=1;rounded=0;entryX=0.7;entryY=1;entryDx=0;entryDy=0;entryPerimeter=0;" parent="1" target="IT8jkF3c_iKPxxVVUz1t-81" edge="1">
          <mxGeometry width="50" height="50" relative="1" as="geometry">
            <mxPoint x="1110" y="1230" as="sourcePoint" />
            <mxPoint x="1110" y="1170" as="targetPoint" />
          </mxGeometry>
        </mxCell>
        <mxCell id="IT8jkF3c_iKPxxVVUz1t-133" value="" style="ellipse;whiteSpace=wrap;html=1;strokeColor=default;fillColor=#000000;" parent="1" vertex="1">
          <mxGeometry x="1107.5" y="1228" width="5" height="5" as="geometry" />
        </mxCell>
        <mxCell id="IT8jkF3c_iKPxxVVUz1t-138" value="" style="ellipse;whiteSpace=wrap;html=1;strokeColor=default;fillColor=#000000;" parent="1" vertex="1">
          <mxGeometry x="1097.5" y="1238" width="5" height="5" as="geometry" />
        </mxCell>
        <mxCell id="IT8jkF3c_iKPxxVVUz1t-139" value="" style="ellipse;whiteSpace=wrap;html=1;strokeColor=default;fillColor=#000000;" parent="1" vertex="1">
          <mxGeometry x="1087.5" y="1248" width="5" height="5" as="geometry" />
        </mxCell>
        <mxCell id="IT8jkF3c_iKPxxVVUz1t-140" value="" style="ellipse;whiteSpace=wrap;html=1;strokeColor=default;fillColor=#000000;" parent="1" vertex="1">
          <mxGeometry x="1077.5" y="1258" width="5" height="5" as="geometry" />
        </mxCell>
        <mxCell id="IT8jkF3c_iKPxxVVUz1t-141" value="" style="ellipse;whiteSpace=wrap;html=1;strokeColor=default;fillColor=#000000;" parent="1" vertex="1">
          <mxGeometry x="1067.5" y="1268" width="5" height="5" as="geometry" />
        </mxCell>
        <mxCell id="IT8jkF3c_iKPxxVVUz1t-142" value="" style="ellipse;whiteSpace=wrap;html=1;strokeColor=default;fillColor=#000000;" parent="1" vertex="1">
          <mxGeometry x="1057.5" y="1279" width="5" height="5" as="geometry" />
        </mxCell>
        <mxCell id="IT8jkF3c_iKPxxVVUz1t-143" value="" style="ellipse;whiteSpace=wrap;html=1;strokeColor=default;fillColor=#000000;" parent="1" vertex="1">
          <mxGeometry x="1047.5" y="1288" width="5" height="5" as="geometry" />
        </mxCell>
        <mxCell id="IT8jkF3c_iKPxxVVUz1t-144" value="" style="ellipse;whiteSpace=wrap;html=1;strokeColor=default;fillColor=#000000;" parent="1" vertex="1">
          <mxGeometry x="1037.5" y="1298" width="5" height="5" as="geometry" />
        </mxCell>
        <mxCell id="IT8jkF3c_iKPxxVVUz1t-145" value="" style="endArrow=none;html=1;rounded=0;" parent="1" edge="1">
          <mxGeometry width="50" height="50" relative="1" as="geometry">
            <mxPoint x="1430" y="1330" as="sourcePoint" />
            <mxPoint x="1430" y="1200" as="targetPoint" />
            <Array as="points">
              <mxPoint x="1450" y="1330" />
              <mxPoint x="1450" y="1200" />
            </Array>
          </mxGeometry>
        </mxCell>
        <mxCell id="IT8jkF3c_iKPxxVVUz1t-146" value="DATA&lt;br&gt;BUS" style="text;html=1;align=center;verticalAlign=middle;whiteSpace=wrap;rounded=0;" parent="1" vertex="1">
          <mxGeometry x="1449" y="1249" width="60" height="30" as="geometry" />
        </mxCell>
        <mxCell id="IT8jkF3c_iKPxxVVUz1t-147" value="" style="endArrow=classic;html=1;rounded=0;entryX=0.75;entryY=0.5;entryDx=0;entryDy=0;entryPerimeter=0;" parent="1" target="IT8jkF3c_iKPxxVVUz1t-149" edge="1">
          <mxGeometry width="50" height="50" relative="1" as="geometry">
            <mxPoint x="380" y="240" as="sourcePoint" />
            <mxPoint x="321" y="240" as="targetPoint" />
          </mxGeometry>
        </mxCell>
        <mxCell id="IT8jkF3c_iKPxxVVUz1t-149" value="AB0" style="text;html=1;align=center;verticalAlign=middle;whiteSpace=wrap;rounded=0;" parent="1" vertex="1">
          <mxGeometry x="275" y="225" width="60" height="30" as="geometry" />
        </mxCell>
        <mxCell id="IT8jkF3c_iKPxxVVUz1t-150" value="" style="endArrow=classic;html=1;rounded=0;" parent="1" edge="1">
          <mxGeometry width="50" height="50" relative="1" as="geometry">
            <mxPoint x="380" y="280" as="sourcePoint" />
            <mxPoint x="320" y="280" as="targetPoint" />
          </mxGeometry>
        </mxCell>
        <mxCell id="IT8jkF3c_iKPxxVVUz1t-151" value="AB1" style="text;html=1;align=center;verticalAlign=middle;whiteSpace=wrap;rounded=0;" parent="1" vertex="1">
          <mxGeometry x="276" y="265" width="60" height="30" as="geometry" />
        </mxCell>
        <mxCell id="IT8jkF3c_iKPxxVVUz1t-152" value="" style="endArrow=classic;html=1;rounded=0;entryX=0.75;entryY=0.5;entryDx=0;entryDy=0;entryPerimeter=0;" parent="1" target="IT8jkF3c_iKPxxVVUz1t-153" edge="1">
          <mxGeometry width="50" height="50" relative="1" as="geometry">
            <mxPoint x="380" y="320" as="sourcePoint" />
            <mxPoint x="321" y="320" as="targetPoint" />
          </mxGeometry>
        </mxCell>
        <mxCell id="IT8jkF3c_iKPxxVVUz1t-153" value="AB2" style="text;html=1;align=center;verticalAlign=middle;whiteSpace=wrap;rounded=0;" parent="1" vertex="1">
          <mxGeometry x="275" y="305" width="60" height="30" as="geometry" />
        </mxCell>
        <mxCell id="IT8jkF3c_iKPxxVVUz1t-154" value="" style="endArrow=classic;html=1;rounded=0;entryX=0.75;entryY=0.5;entryDx=0;entryDy=0;entryPerimeter=0;" parent="1" target="IT8jkF3c_iKPxxVVUz1t-155" edge="1">
          <mxGeometry width="50" height="50" relative="1" as="geometry">
            <mxPoint x="380" y="360" as="sourcePoint" />
            <mxPoint x="321" y="360" as="targetPoint" />
          </mxGeometry>
        </mxCell>
        <mxCell id="IT8jkF3c_iKPxxVVUz1t-155" value="AB3" style="text;html=1;align=center;verticalAlign=middle;whiteSpace=wrap;rounded=0;" parent="1" vertex="1">
          <mxGeometry x="275" y="345" width="60" height="30" as="geometry" />
        </mxCell>
        <mxCell id="IT8jkF3c_iKPxxVVUz1t-156" value="" style="endArrow=classic;html=1;rounded=0;entryX=0.75;entryY=0.5;entryDx=0;entryDy=0;entryPerimeter=0;" parent="1" target="IT8jkF3c_iKPxxVVUz1t-157" edge="1">
          <mxGeometry width="50" height="50" relative="1" as="geometry">
            <mxPoint x="380" y="400" as="sourcePoint" />
            <mxPoint x="321" y="400" as="targetPoint" />
          </mxGeometry>
        </mxCell>
        <mxCell id="IT8jkF3c_iKPxxVVUz1t-157" value="AB4" style="text;html=1;align=center;verticalAlign=middle;whiteSpace=wrap;rounded=0;" parent="1" vertex="1">
          <mxGeometry x="275" y="385" width="60" height="30" as="geometry" />
        </mxCell>
        <mxCell id="IT8jkF3c_iKPxxVVUz1t-158" value="" style="endArrow=classic;html=1;rounded=0;entryX=0.75;entryY=0.5;entryDx=0;entryDy=0;entryPerimeter=0;" parent="1" target="IT8jkF3c_iKPxxVVUz1t-159" edge="1">
          <mxGeometry width="50" height="50" relative="1" as="geometry">
            <mxPoint x="380" y="439" as="sourcePoint" />
            <mxPoint x="321" y="439" as="targetPoint" />
          </mxGeometry>
        </mxCell>
        <mxCell id="IT8jkF3c_iKPxxVVUz1t-159" value="AB5" style="text;html=1;align=center;verticalAlign=middle;whiteSpace=wrap;rounded=0;" parent="1" vertex="1">
          <mxGeometry x="275" y="424" width="60" height="30" as="geometry" />
        </mxCell>
        <mxCell id="IT8jkF3c_iKPxxVVUz1t-160" value="" style="endArrow=classic;html=1;rounded=0;entryX=0.75;entryY=0.5;entryDx=0;entryDy=0;entryPerimeter=0;" parent="1" target="IT8jkF3c_iKPxxVVUz1t-161" edge="1">
          <mxGeometry width="50" height="50" relative="1" as="geometry">
            <mxPoint x="380" y="480" as="sourcePoint" />
            <mxPoint x="321" y="480" as="targetPoint" />
          </mxGeometry>
        </mxCell>
        <mxCell id="IT8jkF3c_iKPxxVVUz1t-161" value="AB6" style="text;html=1;align=center;verticalAlign=middle;whiteSpace=wrap;rounded=0;" parent="1" vertex="1">
          <mxGeometry x="275" y="465" width="60" height="30" as="geometry" />
        </mxCell>
        <mxCell id="IT8jkF3c_iKPxxVVUz1t-162" value="" style="endArrow=classic;html=1;rounded=0;entryX=0.75;entryY=0.5;entryDx=0;entryDy=0;entryPerimeter=0;" parent="1" target="IT8jkF3c_iKPxxVVUz1t-163" edge="1">
          <mxGeometry width="50" height="50" relative="1" as="geometry">
            <mxPoint x="381" y="519" as="sourcePoint" />
            <mxPoint x="322" y="519" as="targetPoint" />
          </mxGeometry>
        </mxCell>
        <mxCell id="IT8jkF3c_iKPxxVVUz1t-163" value="AB7" style="text;html=1;align=center;verticalAlign=middle;whiteSpace=wrap;rounded=0;" parent="1" vertex="1">
          <mxGeometry x="276" y="504" width="60" height="30" as="geometry" />
        </mxCell>
        <mxCell id="IT8jkF3c_iKPxxVVUz1t-164" value="" style="endArrow=none;html=1;rounded=0;" parent="1" edge="1">
          <mxGeometry width="50" height="50" relative="1" as="geometry">
            <mxPoint x="300" y="1110" as="sourcePoint" />
            <mxPoint x="300" y="210" as="targetPoint" />
            <Array as="points">
              <mxPoint x="280" y="1110" />
              <mxPoint x="280" y="210" />
            </Array>
          </mxGeometry>
        </mxCell>
        <mxCell id="IT8jkF3c_iKPxxVVUz1t-165" value="ADDRESS&lt;br&gt;BUS" style="text;html=1;align=center;verticalAlign=middle;whiteSpace=wrap;rounded=0;" parent="1" vertex="1">
          <mxGeometry x="210" y="670" width="60" height="30" as="geometry" />
        </mxCell>
        <mxCell id="IT8jkF3c_iKPxxVVUz1t-182" value="" style="endArrow=classic;html=1;rounded=0;entryX=0.75;entryY=0.5;entryDx=0;entryDy=0;entryPerimeter=0;" parent="1" target="IT8jkF3c_iKPxxVVUz1t-183" edge="1">
          <mxGeometry width="50" height="50" relative="1" as="geometry">
            <mxPoint x="380" y="800" as="sourcePoint" />
            <mxPoint x="321" y="800" as="targetPoint" />
          </mxGeometry>
        </mxCell>
        <mxCell id="IT8jkF3c_iKPxxVVUz1t-183" value="AB8" style="text;html=1;align=center;verticalAlign=middle;whiteSpace=wrap;rounded=0;" parent="1" vertex="1">
          <mxGeometry x="275" y="785" width="60" height="30" as="geometry" />
        </mxCell>
        <mxCell id="IT8jkF3c_iKPxxVVUz1t-184" value="" style="endArrow=classic;html=1;rounded=0;" parent="1" edge="1">
          <mxGeometry width="50" height="50" relative="1" as="geometry">
            <mxPoint x="380" y="840" as="sourcePoint" />
            <mxPoint x="320" y="840" as="targetPoint" />
          </mxGeometry>
        </mxCell>
        <mxCell id="IT8jkF3c_iKPxxVVUz1t-185" value="AB9" style="text;html=1;align=center;verticalAlign=middle;whiteSpace=wrap;rounded=0;" parent="1" vertex="1">
          <mxGeometry x="276" y="825" width="60" height="30" as="geometry" />
        </mxCell>
        <mxCell id="IT8jkF3c_iKPxxVVUz1t-186" value="" style="endArrow=classic;html=1;rounded=0;entryX=0.75;entryY=0.5;entryDx=0;entryDy=0;entryPerimeter=0;" parent="1" target="IT8jkF3c_iKPxxVVUz1t-187" edge="1">
          <mxGeometry width="50" height="50" relative="1" as="geometry">
            <mxPoint x="380" y="880" as="sourcePoint" />
            <mxPoint x="321" y="880" as="targetPoint" />
          </mxGeometry>
        </mxCell>
        <mxCell id="IT8jkF3c_iKPxxVVUz1t-187" value="AB10" style="text;html=1;align=center;verticalAlign=middle;whiteSpace=wrap;rounded=0;" parent="1" vertex="1">
          <mxGeometry x="275" y="865" width="60" height="30" as="geometry" />
        </mxCell>
        <mxCell id="IT8jkF3c_iKPxxVVUz1t-188" value="" style="endArrow=classic;html=1;rounded=0;entryX=0.75;entryY=0.5;entryDx=0;entryDy=0;entryPerimeter=0;" parent="1" target="IT8jkF3c_iKPxxVVUz1t-189" edge="1">
          <mxGeometry width="50" height="50" relative="1" as="geometry">
            <mxPoint x="380" y="920" as="sourcePoint" />
            <mxPoint x="321" y="920" as="targetPoint" />
          </mxGeometry>
        </mxCell>
        <mxCell id="IT8jkF3c_iKPxxVVUz1t-189" value="AB11" style="text;html=1;align=center;verticalAlign=middle;whiteSpace=wrap;rounded=0;" parent="1" vertex="1">
          <mxGeometry x="275" y="905" width="60" height="30" as="geometry" />
        </mxCell>
        <mxCell id="IT8jkF3c_iKPxxVVUz1t-190" value="" style="endArrow=classic;html=1;rounded=0;entryX=0.75;entryY=0.5;entryDx=0;entryDy=0;entryPerimeter=0;" parent="1" target="IT8jkF3c_iKPxxVVUz1t-191" edge="1">
          <mxGeometry width="50" height="50" relative="1" as="geometry">
            <mxPoint x="380" y="960" as="sourcePoint" />
            <mxPoint x="321" y="960" as="targetPoint" />
          </mxGeometry>
        </mxCell>
        <mxCell id="IT8jkF3c_iKPxxVVUz1t-191" value="AB12" style="text;html=1;align=center;verticalAlign=middle;whiteSpace=wrap;rounded=0;" parent="1" vertex="1">
          <mxGeometry x="275" y="945" width="60" height="30" as="geometry" />
        </mxCell>
        <mxCell id="IT8jkF3c_iKPxxVVUz1t-192" value="" style="endArrow=classic;html=1;rounded=0;entryX=0.75;entryY=0.5;entryDx=0;entryDy=0;entryPerimeter=0;" parent="1" target="IT8jkF3c_iKPxxVVUz1t-193" edge="1">
          <mxGeometry width="50" height="50" relative="1" as="geometry">
            <mxPoint x="380" y="999" as="sourcePoint" />
            <mxPoint x="321" y="999" as="targetPoint" />
          </mxGeometry>
        </mxCell>
        <mxCell id="IT8jkF3c_iKPxxVVUz1t-193" value="AB13" style="text;html=1;align=center;verticalAlign=middle;whiteSpace=wrap;rounded=0;" parent="1" vertex="1">
          <mxGeometry x="275" y="984" width="60" height="30" as="geometry" />
        </mxCell>
        <mxCell id="IT8jkF3c_iKPxxVVUz1t-194" value="" style="endArrow=classic;html=1;rounded=0;entryX=0.75;entryY=0.5;entryDx=0;entryDy=0;entryPerimeter=0;" parent="1" target="IT8jkF3c_iKPxxVVUz1t-195" edge="1">
          <mxGeometry width="50" height="50" relative="1" as="geometry">
            <mxPoint x="380" y="1040" as="sourcePoint" />
            <mxPoint x="321" y="1040" as="targetPoint" />
          </mxGeometry>
        </mxCell>
        <mxCell id="IT8jkF3c_iKPxxVVUz1t-195" value="AB14" style="text;html=1;align=center;verticalAlign=middle;whiteSpace=wrap;rounded=0;" parent="1" vertex="1">
          <mxGeometry x="275" y="1025" width="60" height="30" as="geometry" />
        </mxCell>
        <mxCell id="IT8jkF3c_iKPxxVVUz1t-196" value="" style="endArrow=classic;html=1;rounded=0;entryX=0.75;entryY=0.5;entryDx=0;entryDy=0;entryPerimeter=0;" parent="1" target="IT8jkF3c_iKPxxVVUz1t-197" edge="1">
          <mxGeometry width="50" height="50" relative="1" as="geometry">
            <mxPoint x="381" y="1079" as="sourcePoint" />
            <mxPoint x="322" y="1079" as="targetPoint" />
          </mxGeometry>
        </mxCell>
        <mxCell id="IT8jkF3c_iKPxxVVUz1t-197" value="AB15" style="text;html=1;align=center;verticalAlign=middle;whiteSpace=wrap;rounded=0;" parent="1" vertex="1">
          <mxGeometry x="276" y="1064" width="60" height="30" as="geometry" />
        </mxCell>
        <mxCell id="IT8jkF3c_iKPxxVVUz1t-198" value="LEGEND" style="text;html=1;align=center;verticalAlign=middle;whiteSpace=wrap;rounded=0;" parent="1" vertex="1">
          <mxGeometry x="320" y="1279" width="60" height="30" as="geometry" />
        </mxCell>
        <mxCell id="IT8jkF3c_iKPxxVVUz1t-199" value="" style="shape=flexArrow;endArrow=classic;html=1;rounded=0;fillColor=#dae8fc;strokeColor=#6c8ebf;" parent="1" edge="1">
          <mxGeometry width="50" height="50" relative="1" as="geometry">
            <mxPoint x="360" y="1360" as="sourcePoint" />
            <mxPoint x="360" y="1320" as="targetPoint" />
          </mxGeometry>
        </mxCell>
        <mxCell id="IT8jkF3c_iKPxxVVUz1t-201" value="= 8 BIT LINE" style="text;html=1;align=center;verticalAlign=middle;whiteSpace=wrap;rounded=0;" parent="1" vertex="1">
          <mxGeometry x="380" y="1320" width="80" height="30" as="geometry" />
        </mxCell>
        <mxCell id="IT8jkF3c_iKPxxVVUz1t-203" value="" style="endArrow=classic;html=1;rounded=0;" parent="1" edge="1">
          <mxGeometry width="50" height="50" relative="1" as="geometry">
            <mxPoint x="360" y="1410" as="sourcePoint" />
            <mxPoint x="360" y="1370" as="targetPoint" />
          </mxGeometry>
        </mxCell>
        <mxCell id="IT8jkF3c_iKPxxVVUz1t-204" value="= 1 BIT LINE" style="text;html=1;align=center;verticalAlign=middle;whiteSpace=wrap;rounded=0;" parent="1" vertex="1">
          <mxGeometry x="380" y="1370" width="80" height="30" as="geometry" />
        </mxCell>
        <mxCell id="bQFGiDk82bCKwflTSdUh-2" value="" style="shape=flexArrow;endArrow=classic;startArrow=classic;html=1;rounded=0;exitX=1;exitY=0.5;exitDx=0;exitDy=0;fillColor=#dae8fc;strokeColor=#6c8ebf;" edge="1" parent="1">
          <mxGeometry width="100" height="100" relative="1" as="geometry">
            <mxPoint x="800" y="1110" as="sourcePoint" />
            <mxPoint x="850" y="1110.1399999999999" as="targetPoint" />
          </mxGeometry>
        </mxCell>
        <mxCell id="bQFGiDk82bCKwflTSdUh-4" value="ADDR SELECT" style="shape=trapezoid;perimeter=trapezoidPerimeter;whiteSpace=wrap;html=1;fixedSize=1;rotation=-90;" vertex="1" parent="1">
          <mxGeometry x="600" y="835" width="180" height="30" as="geometry" />
        </mxCell>
        <mxCell id="bQFGiDk82bCKwflTSdUh-9" value="" style="shape=flexArrow;endArrow=classic;html=1;rounded=0;exitX=0;exitY=0.75;exitDx=0;exitDy=0;fillColor=#dae8fc;strokeColor=#6c8ebf;entryX=0.837;entryY=0.945;entryDx=0;entryDy=0;entryPerimeter=0;" edge="1" parent="1" target="bQFGiDk82bCKwflTSdUh-4">
          <mxGeometry width="50" height="50" relative="1" as="geometry">
            <mxPoint x="1040" y="609.5" as="sourcePoint" />
            <mxPoint x="740" y="790" as="targetPoint" />
            <Array as="points">
              <mxPoint x="940" y="610" />
              <mxPoint x="940" y="700" />
              <mxPoint x="940" y="790" />
            </Array>
          </mxGeometry>
        </mxCell>
        <mxCell id="bQFGiDk82bCKwflTSdUh-17" value="" style="shape=flexArrow;endArrow=classic;html=1;rounded=0;exitX=0;exitY=0.833;exitDx=0;exitDy=0;fillColor=#dae8fc;strokeColor=#6c8ebf;exitPerimeter=0;entryX=0.608;entryY=1.01;entryDx=0;entryDy=0;entryPerimeter=0;" edge="1" parent="1" source="IT8jkF3c_iKPxxVVUz1t-1" target="bQFGiDk82bCKwflTSdUh-4">
          <mxGeometry width="50" height="50" relative="1" as="geometry">
            <mxPoint x="1042.5" y="624.5" as="sourcePoint" />
            <mxPoint x="715" y="830" as="targetPoint" />
            <Array as="points">
              <mxPoint x="960" y="630" />
              <mxPoint x="960" y="830" />
              <mxPoint x="840" y="830" />
            </Array>
          </mxGeometry>
        </mxCell>
        <mxCell id="bQFGiDk82bCKwflTSdUh-21" value="" style="shape=flexArrow;endArrow=classic;html=1;rounded=0;entryX=1.009;entryY=0.313;entryDx=0;entryDy=0;entryPerimeter=0;fillColor=#dae8fc;strokeColor=#6c8ebf;exitX=0.5;exitY=0;exitDx=0;exitDy=0;" edge="1" parent="1" source="bQFGiDk82bCKwflTSdUh-4">
          <mxGeometry width="50" height="50" relative="1" as="geometry">
            <mxPoint x="680" y="850" as="sourcePoint" />
            <mxPoint x="630.18" y="850.2000000000003" as="targetPoint" />
          </mxGeometry>
        </mxCell>
        <mxCell id="bQFGiDk82bCKwflTSdUh-23" value="" style="endArrow=classic;html=1;rounded=0;exitX=0;exitY=0.722;exitDx=0;exitDy=0;exitPerimeter=0;" edge="1" parent="1" source="IT8jkF3c_iKPxxVVUz1t-1" target="bQFGiDk82bCKwflTSdUh-4">
          <mxGeometry width="50" height="50" relative="1" as="geometry">
            <mxPoint x="750" y="620" as="sourcePoint" />
            <mxPoint x="690" y="750" as="targetPoint" />
            <Array as="points">
              <mxPoint x="920" y="590" />
              <mxPoint x="920" y="750" />
              <mxPoint x="700" y="750" />
              <mxPoint x="700" y="760" />
            </Array>
          </mxGeometry>
        </mxCell>
        <mxCell id="bQFGiDk82bCKwflTSdUh-25" value="" style="shape=flexArrow;endArrow=classic;html=1;rounded=0;fillColor=#dae8fc;strokeColor=#6c8ebf;entryX=0.112;entryY=0.962;entryDx=0;entryDy=0;entryPerimeter=0;" edge="1" parent="1" target="bQFGiDk82bCKwflTSdUh-4">
          <mxGeometry width="50" height="50" relative="1" as="geometry">
            <mxPoint x="740" y="920" as="sourcePoint" />
            <mxPoint x="710" y="920" as="targetPoint" />
          </mxGeometry>
        </mxCell>
        <mxCell id="bQFGiDk82bCKwflTSdUh-26" value="" style="shape=flexArrow;endArrow=classic;html=1;rounded=0;fillColor=#dae8fc;strokeColor=#6c8ebf;entryX=0.112;entryY=0.962;entryDx=0;entryDy=0;entryPerimeter=0;" edge="1" parent="1">
          <mxGeometry width="50" height="50" relative="1" as="geometry">
            <mxPoint x="740" y="870" as="sourcePoint" />
            <mxPoint x="704" y="870" as="targetPoint" />
          </mxGeometry>
        </mxCell>
      </root>
    </mxGraphModel>
  </diagram>
</mxfile>
